G04*
G04 #@! TF.GenerationSoftware,Altium Limited,Altium Designer,21.4.1 (30)*
G04*
G04 Layer_Physical_Order=1*
G04 Layer_Color=255*
%FSTAX24Y24*%
%MOIN*%
G70*
G04*
G04 #@! TF.SameCoordinates,1087EDB9-1C9E-4751-9A69-D70096B2919A*
G04*
G04*
G04 #@! TF.FilePolarity,Positive*
G04*
G01*
G75*
%ADD17R,0.0613X0.0592*%
%ADD18R,0.0866X0.0669*%
%ADD19R,0.0413X0.0453*%
%ADD20R,0.0433X0.0276*%
%ADD21R,0.0453X0.0413*%
%ADD22R,0.0421X0.0475*%
G04:AMPARAMS|DCode=23|XSize=74.8mil|YSize=18.9mil|CornerRadius=2.4mil|HoleSize=0mil|Usage=FLASHONLY|Rotation=0.000|XOffset=0mil|YOffset=0mil|HoleType=Round|Shape=RoundedRectangle|*
%AMROUNDEDRECTD23*
21,1,0.0748,0.0142,0,0,0.0*
21,1,0.0701,0.0189,0,0,0.0*
1,1,0.0047,0.0350,-0.0071*
1,1,0.0047,-0.0350,-0.0071*
1,1,0.0047,-0.0350,0.0071*
1,1,0.0047,0.0350,0.0071*
%
%ADD23ROUNDEDRECTD23*%
%ADD38C,0.0571*%
%ADD39R,0.0571X0.0571*%
%ADD42C,0.0200*%
%ADD43R,0.0630X0.0630*%
%ADD44C,0.0630*%
%ADD45C,0.0472*%
%ADD46C,0.0787*%
%ADD47C,0.0709*%
%ADD48R,0.0709X0.0709*%
%ADD49C,0.0515*%
%ADD50C,0.0768*%
%ADD51O,0.0512X0.0591*%
%ADD52R,0.0512X0.0591*%
%ADD53C,0.0531*%
%ADD54C,0.0700*%
G36*
X02825Y03065D02*
Y03005D01*
X0279Y0297D01*
X0273Y0297D01*
X02575Y03125D01*
X01715Y03125D01*
X01515Y02925D01*
Y0269D01*
X0149Y02665D01*
X0141D01*
X01385Y0269D01*
X01385Y0297D01*
X0164Y03225D01*
X02665D01*
X02825Y03065D01*
D02*
G37*
G36*
X048429Y03245D02*
X048427Y032448D01*
X048404Y03243D01*
X04832Y032346D01*
X048302Y032323D01*
X048282Y032301D01*
X048217Y032202D01*
X048204Y032176D01*
X048189Y03215D01*
X048144Y032041D01*
X048136Y032012D01*
X048126Y031984D01*
X048103Y031868D01*
X048101Y031839D01*
X048097Y031809D01*
Y031691D01*
X048101Y031661D01*
X048103Y031632D01*
X048126Y031516D01*
X048136Y031488D01*
X048144Y031459D01*
X048189Y03135D01*
X048204Y031324D01*
X048217Y031298D01*
X048282Y031199D01*
X048302Y031177D01*
X04832Y031154D01*
X048404Y03107D01*
X048427Y031052D01*
X048449Y031032D01*
X048548Y030967D01*
X048574Y030954D01*
X0486Y030939D01*
X048709Y030893D01*
X048738Y030886D01*
X048766Y030876D01*
X048882Y030853D01*
X048911Y030851D01*
X048941Y030847D01*
X049059D01*
X049089Y030851D01*
X049118Y030853D01*
X049234Y030876D01*
X049262Y030886D01*
X049291Y030893D01*
X0494Y030939D01*
X049426Y030954D01*
X049452Y030967D01*
X049551Y031032D01*
X049573Y031052D01*
X049596Y03107D01*
X04968Y031154D01*
X049698Y031177D01*
X0497Y031179D01*
X04975Y03116D01*
Y028603D01*
X049741Y028596D01*
X049673Y028608D01*
X049659Y028629D01*
X049402Y028886D01*
X049404Y028892D01*
X049419Y029D01*
X049404Y029108D01*
X049362Y029209D01*
X049296Y029296D01*
X049209Y029362D01*
X049108Y029404D01*
X049Y029419D01*
X048892Y029404D01*
X048791Y029362D01*
X048704Y029296D01*
X048638Y029209D01*
X048635Y029204D01*
X0465D01*
X0465Y029204D01*
X046422Y029188D01*
X046356Y029144D01*
X046356Y029144D01*
X045589Y028377D01*
X0455Y028389D01*
X045399Y028376D01*
X045306Y028337D01*
X045225Y028275D01*
X045163Y028194D01*
X045124Y028101D01*
X045111Y028D01*
X045124Y027899D01*
X045163Y027806D01*
X045225Y027725D01*
X045306Y027663D01*
X045399Y027624D01*
X0455Y027611D01*
X045601Y027624D01*
X045694Y027663D01*
X045775Y027725D01*
X045837Y027806D01*
X045876Y027899D01*
X045889Y028D01*
X045877Y028089D01*
X046584Y028796D01*
X048635D01*
X048638Y028791D01*
X048704Y028704D01*
X048791Y028638D01*
X048892Y028596D01*
X049Y028581D01*
X049108Y028596D01*
X049114Y028598D01*
X049311Y028401D01*
Y028347D01*
X049261Y028323D01*
X049209Y028362D01*
X049108Y028404D01*
X049Y028419D01*
X048892Y028404D01*
X048791Y028362D01*
X048704Y028296D01*
X048638Y028209D01*
X048596Y028108D01*
X048581Y028D01*
X048596Y027892D01*
X048598Y027886D01*
X04793Y027218D01*
X041954D01*
X041154Y028019D01*
X041173Y028065D01*
X041897D01*
Y028296D01*
X042854D01*
X042932Y028312D01*
X042973Y028339D01*
X043307D01*
Y028958D01*
X043307Y028992D01*
X043307Y029042D01*
Y029131D01*
X043666D01*
X044296Y028501D01*
Y028385D01*
X044115D01*
Y027615D01*
X044885D01*
Y028385D01*
X044704D01*
Y028585D01*
X044688Y028663D01*
X044644Y02873D01*
X043895Y029479D01*
X043829Y029523D01*
X043751Y029539D01*
X043307D01*
Y029661D01*
X042693D01*
Y029042D01*
X042693Y029008D01*
X042693Y028958D01*
Y028704D01*
X041897D01*
Y028935D01*
X041054D01*
X041035Y028981D01*
X041119Y029065D01*
X041897D01*
Y029935D01*
X040831D01*
Y029354D01*
X040606Y029128D01*
X040562Y029062D01*
X040546Y028984D01*
Y028134D01*
X040562Y028056D01*
X040606Y02799D01*
X041726Y02687D01*
X041726Y02687D01*
X041792Y026826D01*
X04187Y026811D01*
X04187Y026811D01*
X048015D01*
X048093Y026826D01*
X048159Y02687D01*
X048886Y027598D01*
X048892Y027596D01*
X049Y027581D01*
X049108Y027596D01*
X049209Y027638D01*
X049261Y027677D01*
X049311Y027653D01*
Y027347D01*
X049261Y027323D01*
X049209Y027362D01*
X049108Y027404D01*
X04905Y027412D01*
Y027D01*
Y026588D01*
X049108Y026596D01*
X049209Y026638D01*
X049261Y026677D01*
X049311Y026653D01*
Y026347D01*
X049261Y026323D01*
X049209Y026362D01*
X049108Y026404D01*
X04905Y026412D01*
Y026D01*
X049D01*
Y02595D01*
X048588D01*
X048596Y025892D01*
X048638Y025791D01*
X048704Y025704D01*
X048791Y025638D01*
X048892Y025596D01*
X048956Y025587D01*
X048974Y025534D01*
X04884Y025401D01*
X046382D01*
X046382Y025401D01*
X046304Y025385D01*
X046238Y025341D01*
X046238Y025341D01*
X045703Y024807D01*
X045339D01*
Y024704D01*
X0415D01*
Y025D01*
X03575D01*
Y025859D01*
X035845Y025872D01*
X035934Y025909D01*
X036011Y025967D01*
X036069Y026044D01*
X036106Y026133D01*
X036119Y026228D01*
X036117Y026246D01*
X03616Y026296D01*
X037672D01*
Y026262D01*
X038305D01*
Y026738D01*
X037672D01*
Y026704D01*
X036033D01*
X035955Y026688D01*
X035889Y026644D01*
X035831Y026587D01*
X03575Y026597D01*
Y029403D01*
X035845Y029415D01*
X035934Y029452D01*
X036011Y029511D01*
X036069Y029587D01*
X036106Y029676D01*
X036119Y029772D01*
X036106Y029867D01*
X036069Y029956D01*
X036011Y030033D01*
X035974Y030061D01*
X035991Y030111D01*
X037046D01*
Y029287D01*
X037062Y029209D01*
X037106Y029143D01*
X037603Y028646D01*
Y028065D01*
X038669D01*
Y028712D01*
X038715Y028731D01*
X040046Y0274D01*
Y027161D01*
X039943D01*
Y026542D01*
X039943Y026508D01*
X039943Y026458D01*
Y026369D01*
X03913D01*
X039102Y026364D01*
X038695D01*
Y025888D01*
X039328D01*
Y025961D01*
X039943D01*
Y025839D01*
X040557D01*
Y026458D01*
X040557Y026492D01*
X040557Y026542D01*
Y027161D01*
X040454D01*
Y027484D01*
X040438Y027562D01*
X040394Y027628D01*
X038669Y029354D01*
Y029935D01*
X037603D01*
Y029288D01*
X037557Y029269D01*
X037454Y029372D01*
Y030111D01*
X048585D01*
Y029585D01*
X049415D01*
Y030415D01*
X048873D01*
X048829Y030459D01*
X048763Y030503D01*
X048685Y030519D01*
X03575D01*
Y0325D01*
X04841D01*
X048429Y03245D01*
D02*
G37*
G36*
X03385Y0283D02*
Y0277D01*
X0335Y02735D01*
X02415Y02735D01*
X0238Y0277D01*
Y0283D01*
X02415Y02865D01*
X0335D01*
X03385Y0283D01*
D02*
G37*
G36*
X0148Y0259D02*
X01515Y02555D01*
Y02495D01*
X0148Y0246D01*
X013Y0246D01*
X01275Y02435D01*
X01275Y01725D01*
X01315Y01685D01*
X0193D01*
X01985Y0163D01*
Y0158D01*
X0195Y01545D01*
X0126D01*
X01175Y0163D01*
Y02505D01*
X0126Y0259D01*
X0148Y0259D01*
D02*
G37*
G36*
X04975Y025669D02*
Y01234D01*
X0497Y012321D01*
X049698Y012323D01*
X04968Y012346D01*
X049596Y01243D01*
X049573Y012448D01*
X049551Y012468D01*
X049452Y012533D01*
X049426Y012546D01*
X0494Y012561D01*
X049291Y012607D01*
X049262Y012614D01*
X049234Y012624D01*
X049118Y012647D01*
X049089Y012649D01*
X049059Y012653D01*
X048941D01*
X048911Y012649D01*
X048882Y012647D01*
X048766Y012624D01*
X048738Y012614D01*
X048709Y012607D01*
X0486Y012561D01*
X048574Y012546D01*
X048548Y012533D01*
X048449Y012468D01*
X048427Y012448D01*
X048404Y01243D01*
X04832Y012346D01*
X048302Y012323D01*
X048282Y012301D01*
X048217Y012202D01*
X048204Y012176D01*
X048189Y01215D01*
X048144Y012041D01*
X048136Y012012D01*
X048126Y011984D01*
X048103Y011868D01*
X048101Y011839D01*
X048097Y011809D01*
Y011691D01*
X048101Y011661D01*
X048103Y011632D01*
X048126Y011516D01*
X048136Y011488D01*
X048144Y011459D01*
X048189Y01135D01*
X048204Y011324D01*
X048217Y011298D01*
X048282Y011199D01*
X048302Y011177D01*
X04832Y011154D01*
X048404Y01107D01*
X048427Y011052D01*
X048429Y01105D01*
X04841Y011D01*
X0435D01*
Y01375D01*
X04325Y014D01*
Y014065D01*
X0433Y014096D01*
X043383Y014062D01*
X04345Y014053D01*
Y0145D01*
Y014947D01*
X043383Y014938D01*
X0433Y014904D01*
X04325Y014935D01*
Y015D01*
X0435Y01525D01*
Y016D01*
X043Y0165D01*
X04125D01*
X0405Y01725D01*
X039135Y01725D01*
X039098Y017298D01*
X03862D01*
Y017396D01*
X038632Y017398D01*
X039097D01*
Y0174D01*
X039134Y01745D01*
X040878Y01745D01*
X040903Y017419D01*
Y017278D01*
X040913Y017229D01*
X04094Y017188D01*
X040981Y017161D01*
X04103Y017152D01*
X041345D01*
X04138Y017145D01*
X043211D01*
X047Y013356D01*
X047066Y013312D01*
X047144Y013296D01*
X048585D01*
Y013085D01*
X049415D01*
Y013915D01*
X048585D01*
Y013704D01*
X047228D01*
X043599Y017333D01*
X043617Y017386D01*
X043643Y017389D01*
X046677Y014356D01*
X046743Y014312D01*
X046821Y014296D01*
X048635D01*
X048638Y014291D01*
X048704Y014204D01*
X048791Y014138D01*
X048892Y014096D01*
X049Y014081D01*
X049108Y014096D01*
X049209Y014138D01*
X049296Y014204D01*
X049362Y014291D01*
X049404Y014392D01*
X049419Y0145D01*
X049404Y014608D01*
X049362Y014709D01*
X049296Y014796D01*
X049209Y014862D01*
X049108Y014904D01*
X049Y014919D01*
X048892Y014904D01*
X048791Y014862D01*
X048704Y014796D01*
X048638Y014709D01*
X048635Y014704D01*
X046905D01*
X046332Y015278D01*
X046364Y015316D01*
X046371Y015312D01*
X046449Y015296D01*
X048635D01*
X048638Y015291D01*
X048704Y015204D01*
X048791Y015138D01*
X048892Y015096D01*
X049Y015081D01*
X049108Y015096D01*
X049209Y015138D01*
X049296Y015204D01*
X049362Y015291D01*
X049404Y015392D01*
X049419Y0155D01*
X049404Y015608D01*
X049362Y015709D01*
X049296Y015796D01*
X049209Y015862D01*
X049108Y015904D01*
X049Y015919D01*
X048892Y015904D01*
X048791Y015862D01*
X048704Y015796D01*
X048638Y015709D01*
X048635Y015704D01*
X046533D01*
X045987Y01625D01*
X046007Y016296D01*
X048635D01*
X048638Y016291D01*
X048704Y016204D01*
X048791Y016138D01*
X048892Y016096D01*
X049Y016081D01*
X049108Y016096D01*
X049209Y016138D01*
X049296Y016204D01*
X049362Y016291D01*
X049404Y016392D01*
X049419Y0165D01*
X049404Y016608D01*
X049362Y016709D01*
X049296Y016796D01*
X049209Y016862D01*
X049108Y016904D01*
X049Y016919D01*
X048892Y016904D01*
X048791Y016862D01*
X048704Y016796D01*
X048638Y016709D01*
X048635Y016704D01*
X046007D01*
X045716Y016994D01*
X04575Y017031D01*
X045816Y016986D01*
X045894Y016971D01*
X04694D01*
Y016837D01*
X04756D01*
Y017488D01*
Y017775D01*
X04725D01*
X04694D01*
Y017488D01*
Y017379D01*
X045978D01*
X045837Y01752D01*
X045839Y017539D01*
X045828Y017627D01*
X045794Y017709D01*
X04574Y017779D01*
X04567Y017833D01*
X045588Y017867D01*
X0455Y017878D01*
X045455Y017873D01*
X044828Y0185D01*
X045455Y019127D01*
X0455Y019122D01*
X045588Y019133D01*
X04567Y019167D01*
X04574Y019221D01*
X045794Y019291D01*
X045828Y019373D01*
X045839Y019461D01*
X045837Y01948D01*
X045978Y019621D01*
X04694D01*
Y019488D01*
Y019225D01*
X04725D01*
Y019175D01*
D01*
Y019225D01*
X04756D01*
Y019488D01*
Y020163D01*
X04694D01*
Y020029D01*
X045894D01*
X045816Y020014D01*
X04575Y019969D01*
X045716Y020006D01*
X046007Y020296D01*
X048635D01*
X048638Y020291D01*
X048704Y020204D01*
X048791Y020138D01*
X048892Y020096D01*
X049Y020081D01*
X049108Y020096D01*
X049209Y020138D01*
X049296Y020204D01*
X049362Y020291D01*
X049404Y020392D01*
X049419Y0205D01*
X049404Y020608D01*
X049362Y020709D01*
X049296Y020796D01*
X049209Y020862D01*
X049108Y020904D01*
X049Y020919D01*
X048892Y020904D01*
X048791Y020862D01*
X048704Y020796D01*
X048638Y020709D01*
X048635Y020704D01*
X046007D01*
X045987Y02075D01*
X046533Y021296D01*
X048635D01*
X048638Y021291D01*
X048704Y021204D01*
X048791Y021138D01*
X048892Y021096D01*
X049Y021081D01*
X049108Y021096D01*
X049209Y021138D01*
X049296Y021204D01*
X049362Y021291D01*
X049404Y021392D01*
X049419Y0215D01*
X049404Y021608D01*
X049362Y021709D01*
X049296Y021796D01*
X049209Y021862D01*
X049108Y021904D01*
X049Y021919D01*
X048892Y021904D01*
X048791Y021862D01*
X048704Y021796D01*
X048638Y021709D01*
X048635Y021704D01*
X046449D01*
X046371Y021688D01*
X046364Y021684D01*
X046332Y021722D01*
X046905Y022296D01*
X048635D01*
X048638Y022291D01*
X048704Y022204D01*
X048791Y022138D01*
X048892Y022096D01*
X049Y022081D01*
X049108Y022096D01*
X049209Y022138D01*
X049296Y022204D01*
X049362Y022291D01*
X049404Y022392D01*
X049419Y0225D01*
X049404Y022608D01*
X049362Y022709D01*
X049296Y022796D01*
X049209Y022862D01*
X049108Y022904D01*
X049Y022919D01*
X048892Y022904D01*
X048791Y022862D01*
X048704Y022796D01*
X048638Y022709D01*
X048635Y022704D01*
X046821D01*
X046743Y022688D01*
X046736Y022684D01*
X046704Y022722D01*
X047277Y023296D01*
X048635D01*
X048638Y023291D01*
X048704Y023204D01*
X048791Y023138D01*
X048892Y023096D01*
X049Y023081D01*
X049108Y023096D01*
X049209Y023138D01*
X049296Y023204D01*
X049362Y023291D01*
X049404Y023392D01*
X049419Y0235D01*
X049404Y023608D01*
X049362Y023709D01*
X049296Y023796D01*
X049209Y023862D01*
X049108Y023904D01*
X049Y023919D01*
X048892Y023904D01*
X048791Y023862D01*
X048704Y023796D01*
X048638Y023709D01*
X048635Y023704D01*
X047193D01*
X047115Y023688D01*
X047049Y023644D01*
X04326Y019855D01*
X0415D01*
Y02015D01*
X04171Y02036D01*
X042905D01*
X042983Y020375D01*
X043049Y02042D01*
X046479Y023849D01*
X046523Y023915D01*
X046539Y023993D01*
Y024193D01*
X046661D01*
Y024296D01*
X048585D01*
Y024085D01*
X049415D01*
Y024915D01*
X048585D01*
Y024704D01*
X046661D01*
Y024807D01*
X046345D01*
X046326Y024853D01*
X046466Y024993D01*
X048925D01*
X049003Y025008D01*
X049069Y025052D01*
X049659Y025643D01*
X049673Y025664D01*
X049741Y025675D01*
X04975Y025669D01*
D02*
G37*
G36*
X0385Y023143D02*
X038453Y023132D01*
X038417Y023219D01*
X03836Y023293D01*
X038286Y02335D01*
X038199Y023386D01*
X038156Y023392D01*
Y023D01*
Y022608D01*
X038199Y022614D01*
X038286Y02265D01*
X03836Y022707D01*
X038417Y022781D01*
X038453Y022868D01*
X0385Y022857D01*
Y020448D01*
X038479Y020444D01*
X038413Y0204D01*
X038413Y0204D01*
X037952Y019939D01*
X037908Y019872D01*
X037892Y019794D01*
Y019509D01*
X037908Y019431D01*
X037952Y019365D01*
X038059Y019257D01*
X038126Y019213D01*
X038144Y019209D01*
Y019088D01*
X037744D01*
X035042Y02179D01*
X034976Y021834D01*
X034898Y021849D01*
X034406D01*
Y021958D01*
Y022305D01*
X034D01*
X033594D01*
Y021958D01*
Y021849D01*
X033478D01*
X033183Y022144D01*
X033117Y022188D01*
X033039Y022204D01*
X032911D01*
Y022307D01*
X032258D01*
Y022307D01*
X032242D01*
Y022307D01*
X031589D01*
Y022204D01*
X031146D01*
X031068Y022188D01*
X031001Y022144D01*
X030518Y021661D01*
X030193D01*
Y021539D01*
X03D01*
X028644Y022894D01*
X028578Y022938D01*
X0285Y022954D01*
X025084D01*
X02475Y023288D01*
Y0235D01*
X0385D01*
Y023143D01*
D02*
G37*
G36*
X045339Y024193D02*
X045958D01*
X045992Y024193D01*
Y024193D01*
X046008D01*
Y024193D01*
X046131D01*
Y024078D01*
X042821Y020768D01*
X042302D01*
X04228Y020813D01*
X042294Y02083D01*
X042328Y020912D01*
X042333Y02095D01*
X042D01*
Y021D01*
D01*
Y02095D01*
X041667D01*
X041672Y020912D01*
X041706Y02083D01*
X04172Y020813D01*
X041698Y020768D01*
X041625D01*
X04155Y020753D01*
X041541Y020752D01*
X0415Y020778D01*
Y022857D01*
X041547Y022868D01*
X041583Y022781D01*
X04164Y022707D01*
X041714Y02265D01*
X041801Y022614D01*
X041844Y022608D01*
Y023D01*
Y023392D01*
X041801Y023386D01*
X041714Y02335D01*
X04164Y023293D01*
X041583Y023219D01*
X041547Y023132D01*
X0415Y023143D01*
Y024296D01*
X045339D01*
Y024193D01*
D02*
G37*
G36*
X024856Y022606D02*
X024922Y022562D01*
X025Y022546D01*
X025Y022546D01*
X028416D01*
X029771Y02119D01*
X029837Y021146D01*
X029915Y021131D01*
X030193D01*
Y021008D01*
X030193D01*
Y020992D01*
X030193D01*
Y020893D01*
X029645D01*
X028394Y022144D01*
X028328Y022188D01*
X02825Y022204D01*
X024762D01*
X02475Y022216D01*
Y022646D01*
X024796Y022665D01*
X024856Y022606D01*
D02*
G37*
G36*
X031589Y021693D02*
X032242D01*
Y021693D01*
X032258D01*
Y021693D01*
X032911D01*
Y02178D01*
X032961Y02179D01*
X033249Y021501D01*
X033316Y021457D01*
X033394Y021441D01*
X033594D01*
Y021249D01*
X034406D01*
Y021441D01*
X034814D01*
X037377Y018878D01*
X037358Y018832D01*
X037227D01*
X03556Y020499D01*
X035494Y020543D01*
X035416Y020559D01*
X034406D01*
Y020751D01*
X033594D01*
Y020559D01*
X033466D01*
X033388Y020543D01*
X033321Y020499D01*
X033027Y020204D01*
X032911D01*
Y020307D01*
X032258D01*
Y020307D01*
X032242D01*
Y020307D01*
X031965D01*
Y02D01*
Y019693D01*
X032242D01*
Y019693D01*
X032258D01*
Y019693D01*
X032911D01*
Y019796D01*
X033111D01*
X033189Y019812D01*
X033255Y019856D01*
X033544Y020144D01*
X033594Y020135D01*
Y019958D01*
Y019695D01*
X034D01*
X034406D01*
Y019958D01*
Y020151D01*
X035331D01*
X036982Y0185D01*
X035331Y016849D01*
X034406D01*
Y016958D01*
Y017305D01*
X034D01*
X033594D01*
Y016958D01*
Y016859D01*
X032842D01*
X032807Y016895D01*
X032807Y016992D01*
X032807Y017042D01*
Y017285D01*
X032193D01*
Y017042D01*
X032193Y017008D01*
X032193Y016958D01*
Y016339D01*
X032807D01*
Y016451D01*
X033594D01*
Y016249D01*
X034406D01*
Y016441D01*
X035416D01*
X035494Y016457D01*
X03556Y016501D01*
X037227Y018168D01*
X037358D01*
X037377Y018122D01*
X034814Y015559D01*
X034406D01*
Y015751D01*
X033594D01*
Y015549D01*
X032807D01*
Y015661D01*
X032193D01*
Y015539D01*
X031557D01*
Y015661D01*
X030943D01*
Y015042D01*
X030943Y015008D01*
X030943Y014958D01*
Y014869D01*
X030342D01*
X030307Y014905D01*
X030307Y014992D01*
X030307Y015042D01*
Y015661D01*
X030204D01*
Y017713D01*
X030188Y017791D01*
X030144Y017857D01*
X027192Y020809D01*
X027202Y020834D01*
X027218Y020953D01*
X027202Y021071D01*
X027157Y021182D01*
X027084Y021277D01*
X026989Y02135D01*
X026878Y021395D01*
X02676Y021411D01*
X026641Y021395D01*
X026531Y02135D01*
X026436Y021277D01*
X026363Y021182D01*
X026317Y021071D01*
X026302Y020953D01*
X026317Y020834D01*
X026363Y020724D01*
X026436Y020629D01*
X026531Y020556D01*
X026641Y02051D01*
X02676Y020495D01*
X026878Y02051D01*
X026904Y020521D01*
X029796Y017628D01*
Y015661D01*
X029693D01*
Y015042D01*
X029693Y015008D01*
X029693Y014958D01*
Y014339D01*
X030307D01*
Y014461D01*
X030943D01*
Y014339D01*
X031557D01*
Y014958D01*
X031557Y014992D01*
X031557Y015042D01*
Y015131D01*
X032158D01*
X032193Y015095D01*
X032193Y015008D01*
X032193Y014958D01*
Y014715D01*
X0325D01*
X032807D01*
Y014958D01*
X032807Y014992D01*
X032807Y015042D01*
Y015141D01*
X033594D01*
Y014958D01*
Y014695D01*
X034D01*
X034406D01*
Y014958D01*
Y015151D01*
X034898D01*
X034976Y015166D01*
X035042Y01521D01*
X037744Y017912D01*
X038144D01*
Y01791D01*
X03862D01*
Y01781D01*
X038144D01*
Y017791D01*
X038126Y017787D01*
X038059Y017743D01*
X037952Y017635D01*
X037908Y017569D01*
X037892Y017491D01*
Y016904D01*
X037908Y016826D01*
X037952Y01676D01*
X0385Y016212D01*
Y01525D01*
X038744D01*
Y014395D01*
X038538D01*
Y013605D01*
X03925D01*
Y014395D01*
X039152D01*
Y01525D01*
X0425Y01525D01*
X04275Y015D01*
Y014935D01*
X0427Y014904D01*
X042617Y014938D01*
X04255Y014947D01*
Y0145D01*
Y014053D01*
X042617Y014062D01*
X0427Y014096D01*
X04275Y014065D01*
Y014D01*
X0425Y01375D01*
Y0125D01*
X02475D01*
Y021796D01*
X028166D01*
X029416Y020545D01*
X029482Y020501D01*
X02956Y020486D01*
X030193D01*
Y020339D01*
X03045D01*
Y020665D01*
X0305D01*
Y020715D01*
X030807D01*
Y020992D01*
X030807D01*
Y021008D01*
X030807D01*
Y021373D01*
X03123Y021796D01*
X031589D01*
Y021693D01*
D02*
G37*
G36*
X01815Y02835D02*
Y02105D01*
X0187Y0205D01*
X0195D01*
X0198Y0202D01*
Y01975D01*
X0195Y01945D01*
X0156D01*
X01515Y019D01*
Y0178D01*
X01495Y0176D01*
X01405D01*
X01385Y0178D01*
Y0192D01*
X01515Y0205D01*
X0163D01*
X01685Y02105D01*
X01685Y02835D01*
X01715Y02865D01*
X01785D01*
X01815Y02835D01*
D02*
G37*
%LPC*%
G36*
X04895Y027412D02*
X048892Y027404D01*
X048791Y027362D01*
X048704Y027296D01*
X048638Y027209D01*
X048596Y027108D01*
X048588Y02705D01*
X04895D01*
Y027412D01*
D02*
G37*
G36*
X039328Y027112D02*
X039062D01*
Y026924D01*
X039328D01*
Y027112D01*
D02*
G37*
G36*
X038962D02*
X038695D01*
Y026924D01*
X038962D01*
Y027112D01*
D02*
G37*
G36*
X039328Y026824D02*
X039062D01*
Y026636D01*
X039328D01*
Y026824D01*
D02*
G37*
G36*
X038962D02*
X038695D01*
Y026636D01*
X038962D01*
Y026824D01*
D02*
G37*
G36*
X04895Y02695D02*
X048588D01*
X048596Y026892D01*
X048638Y026791D01*
X048704Y026704D01*
X048791Y026638D01*
X048892Y026596D01*
X04895Y026588D01*
Y02695D01*
D02*
G37*
G36*
Y026412D02*
X048892Y026404D01*
X048791Y026362D01*
X048704Y026296D01*
X048638Y026209D01*
X048596Y026108D01*
X048588Y02605D01*
X04895D01*
Y026412D01*
D02*
G37*
G36*
X04756Y019125D02*
X0473D01*
Y018837D01*
X04756D01*
Y019125D01*
D02*
G37*
G36*
X0472D02*
X04694D01*
Y018837D01*
X0472D01*
Y019125D01*
D02*
G37*
G36*
X04756Y018163D02*
X0473D01*
Y017875D01*
X04756D01*
Y018163D01*
D02*
G37*
G36*
X0472D02*
X04694D01*
Y017875D01*
X0472D01*
Y018163D01*
D02*
G37*
G36*
X04905Y017912D02*
Y01755D01*
X049412D01*
X049404Y017608D01*
X049362Y017709D01*
X049296Y017796D01*
X049209Y017862D01*
X049108Y017904D01*
X04905Y017912D01*
D02*
G37*
G36*
X04895D02*
X048892Y017904D01*
X048791Y017862D01*
X048704Y017796D01*
X048638Y017709D01*
X048596Y017608D01*
X048588Y01755D01*
X04895D01*
Y017912D01*
D02*
G37*
G36*
X049412Y01745D02*
X04905D01*
Y017088D01*
X049108Y017096D01*
X049209Y017138D01*
X049296Y017204D01*
X049362Y017291D01*
X049404Y017392D01*
X049412Y01745D01*
D02*
G37*
G36*
X04895D02*
X048588D01*
X048596Y017392D01*
X048638Y017291D01*
X048704Y017204D01*
X048791Y017138D01*
X048892Y017096D01*
X04895Y017088D01*
Y01745D01*
D02*
G37*
G36*
X04355Y014947D02*
Y01455D01*
X043947D01*
X043938Y014617D01*
X043893Y014727D01*
X043821Y014821D01*
X043727Y014893D01*
X043617Y014938D01*
X04355Y014947D01*
D02*
G37*
G36*
X043947Y01445D02*
X04355D01*
Y014053D01*
X043617Y014062D01*
X043727Y014107D01*
X043821Y014179D01*
X043893Y014273D01*
X043938Y014383D01*
X043947Y01445D01*
D02*
G37*
G36*
X038056Y023392D02*
X038013Y023386D01*
X037927Y02335D01*
X037852Y023293D01*
X037795Y023219D01*
X03776Y023132D01*
X037749Y02305D01*
X038056D01*
Y023392D01*
D02*
G37*
G36*
Y02295D02*
X037749D01*
X03776Y022868D01*
X037795Y022781D01*
X037852Y022707D01*
X037927Y02265D01*
X038013Y022614D01*
X038056Y022608D01*
Y02295D01*
D02*
G37*
G36*
X034406Y022751D02*
X03405D01*
Y022405D01*
X034406D01*
Y022751D01*
D02*
G37*
G36*
X03395D02*
X033594D01*
Y022405D01*
X03395D01*
Y022751D01*
D02*
G37*
G36*
X03805Y021333D02*
Y02105D01*
X038333D01*
X038328Y021088D01*
X038294Y02117D01*
X03824Y02124D01*
X03817Y021294D01*
X038088Y021328D01*
X03805Y021333D01*
D02*
G37*
G36*
X03795D02*
X037912Y021328D01*
X03783Y021294D01*
X03776Y02124D01*
X037706Y02117D01*
X037672Y021088D01*
X037667Y02105D01*
X03795D01*
Y021333D01*
D02*
G37*
G36*
X038333Y02095D02*
X03805D01*
Y020667D01*
X038088Y020672D01*
X03817Y020706D01*
X03824Y02076D01*
X038294Y02083D01*
X038328Y020912D01*
X038333Y02095D01*
D02*
G37*
G36*
X03795D02*
X037667D01*
X037672Y020912D01*
X037706Y02083D01*
X03776Y02076D01*
X03783Y020706D01*
X037912Y020672D01*
X03795Y020667D01*
Y02095D01*
D02*
G37*
G36*
X041944Y023392D02*
Y02305D01*
X042251D01*
X04224Y023132D01*
X042205Y023219D01*
X042148Y023293D01*
X042073Y02335D01*
X041987Y023386D01*
X041944Y023392D01*
D02*
G37*
G36*
X042251Y02295D02*
X041944D01*
Y022608D01*
X041987Y022614D01*
X042073Y02265D01*
X042148Y022707D01*
X042205Y022781D01*
X04224Y022868D01*
X042251Y02295D01*
D02*
G37*
G36*
X04205Y021333D02*
Y02105D01*
X042333D01*
X042328Y021088D01*
X042294Y02117D01*
X04224Y02124D01*
X04217Y021294D01*
X042088Y021328D01*
X04205Y021333D01*
D02*
G37*
G36*
X04195D02*
X041912Y021328D01*
X04183Y021294D01*
X04176Y02124D01*
X041706Y02117D01*
X041672Y021088D01*
X041667Y02105D01*
X04195D01*
Y021333D01*
D02*
G37*
G36*
X030819Y020615D02*
X03055D01*
Y020307D01*
X031001Y019856D01*
X031068Y019812D01*
X031146Y019796D01*
X031589D01*
Y019693D01*
X031865D01*
Y02D01*
Y020307D01*
X031589D01*
Y020204D01*
X03123D01*
X030819Y020615D01*
D02*
G37*
G36*
X034406Y019595D02*
X03405D01*
Y019249D01*
X034406D01*
Y019595D01*
D02*
G37*
G36*
X03395D02*
X033594D01*
Y019249D01*
X03395D01*
Y019595D01*
D02*
G37*
G36*
X02676Y018458D02*
X026641Y018443D01*
X026531Y018397D01*
X026436Y018324D01*
X026363Y018229D01*
X026317Y018119D01*
X026302Y018D01*
X026317Y017881D01*
X026363Y017771D01*
X026436Y017676D01*
X026531Y017603D01*
X026641Y017557D01*
X02676Y017542D01*
X026878Y017557D01*
X026989Y017603D01*
X027084Y017676D01*
X027157Y017771D01*
X027202Y017881D01*
X027218Y018D01*
X027202Y018119D01*
X027157Y018229D01*
X027084Y018324D01*
X026989Y018397D01*
X026878Y018443D01*
X02676Y018458D01*
D02*
G37*
G36*
X034406Y017751D02*
X03405D01*
Y017405D01*
X034406D01*
Y017751D01*
D02*
G37*
G36*
X03395D02*
X033594D01*
Y017405D01*
X03395D01*
Y017751D01*
D02*
G37*
G36*
X032807Y017661D02*
X03255D01*
Y017385D01*
X032807D01*
Y017661D01*
D02*
G37*
G36*
X03245D02*
X032193D01*
Y017385D01*
X03245D01*
Y017661D01*
D02*
G37*
G36*
X03805Y016333D02*
Y01605D01*
X038333D01*
X038328Y016088D01*
X038294Y01617D01*
X03824Y01624D01*
X03817Y016294D01*
X038088Y016328D01*
X03805Y016333D01*
D02*
G37*
G36*
X03795D02*
X037912Y016328D01*
X03783Y016294D01*
X03776Y01624D01*
X037706Y01617D01*
X037672Y016088D01*
X037667Y01605D01*
X03795D01*
Y016333D01*
D02*
G37*
G36*
X038333Y01595D02*
X03805D01*
Y015667D01*
X038088Y015672D01*
X03817Y015706D01*
X03824Y01576D01*
X038294Y01583D01*
X038328Y015912D01*
X038333Y01595D01*
D02*
G37*
G36*
X03795D02*
X037667D01*
X037672Y015912D01*
X037706Y01583D01*
X03776Y01576D01*
X03783Y015706D01*
X037912Y015672D01*
X03795Y015667D01*
Y01595D01*
D02*
G37*
G36*
X02681Y015499D02*
Y015097D01*
X027212D01*
X027202Y015166D01*
X027157Y015276D01*
X027084Y015371D01*
X026989Y015444D01*
X026878Y01549D01*
X02681Y015499D01*
D02*
G37*
G36*
X02671D02*
X026641Y01549D01*
X026531Y015444D01*
X026436Y015371D01*
X026363Y015276D01*
X026317Y015166D01*
X026308Y015097D01*
X02671D01*
Y015499D01*
D02*
G37*
G36*
X027212Y014997D02*
X02681D01*
Y014596D01*
X026878Y014605D01*
X026989Y01465D01*
X027084Y014723D01*
X027157Y014818D01*
X027202Y014929D01*
X027212Y014997D01*
D02*
G37*
G36*
X02671D02*
X026308D01*
X026317Y014929D01*
X026363Y014818D01*
X026436Y014723D01*
X026531Y01465D01*
X026641Y014605D01*
X02671Y014596D01*
Y014997D01*
D02*
G37*
G36*
X04245Y014947D02*
X042383Y014938D01*
X042273Y014893D01*
X042179Y014821D01*
X042107Y014727D01*
X042062Y014617D01*
X042053Y01455D01*
X04245D01*
Y014947D01*
D02*
G37*
G36*
X032807Y014615D02*
X03255D01*
Y014339D01*
X032807D01*
Y014615D01*
D02*
G37*
G36*
X03245D02*
X032193D01*
Y014339D01*
X03245D01*
Y014615D01*
D02*
G37*
G36*
X034406Y014595D02*
X03405D01*
Y014249D01*
X034406D01*
Y014595D01*
D02*
G37*
G36*
X03395D02*
X033594D01*
Y014249D01*
X03395D01*
Y014595D01*
D02*
G37*
G36*
X04245Y01445D02*
X042053D01*
X042062Y014383D01*
X042107Y014273D01*
X042179Y014179D01*
X042273Y014107D01*
X042383Y014062D01*
X04245Y014053D01*
Y01445D01*
D02*
G37*
G36*
X038156Y014392D02*
Y01405D01*
X038464D01*
X038453Y014132D01*
X038417Y014219D01*
X03836Y014293D01*
X038286Y01435D01*
X038199Y014386D01*
X038156Y014392D01*
D02*
G37*
G36*
X038056Y014392D02*
X038013Y014386D01*
X037927Y01435D01*
X037852Y014293D01*
X037795Y014219D01*
X03776Y014132D01*
X037749Y01405D01*
X038056D01*
Y014392D01*
D02*
G37*
G36*
X038464Y01395D02*
X038156D01*
Y013608D01*
X038199Y013614D01*
X038286Y01365D01*
X03836Y013707D01*
X038417Y013781D01*
X038453Y013868D01*
X038464Y01395D01*
D02*
G37*
G36*
X038056D02*
X037749D01*
X03776Y013868D01*
X037795Y013781D01*
X037852Y013707D01*
X037927Y01365D01*
X038013Y013614D01*
X038056Y013608D01*
Y01395D01*
D02*
G37*
%LPD*%
D17*
X034Y022355D02*
D03*
Y021645D02*
D03*
Y019645D02*
D03*
Y020355D02*
D03*
Y017355D02*
D03*
Y016645D02*
D03*
Y014645D02*
D03*
Y015355D02*
D03*
D18*
X038136Y0285D02*
D03*
Y0295D02*
D03*
X041364D02*
D03*
Y0285D02*
D03*
D19*
X043Y029335D02*
D03*
Y028665D02*
D03*
X04025Y026835D02*
D03*
Y026165D02*
D03*
X0305Y021335D02*
D03*
Y020665D02*
D03*
X03125Y015335D02*
D03*
Y014665D02*
D03*
X03Y014665D02*
D03*
Y015335D02*
D03*
X0325Y017335D02*
D03*
Y016665D02*
D03*
Y014665D02*
D03*
Y015335D02*
D03*
D20*
X037988Y0265D02*
D03*
X039012Y026874D02*
D03*
Y026126D02*
D03*
D21*
X031915Y022D02*
D03*
X032585D02*
D03*
X031915Y02D02*
D03*
X032585D02*
D03*
X046335Y0245D02*
D03*
X045665D02*
D03*
D22*
X04725Y019175D02*
D03*
Y019825D02*
D03*
Y017825D02*
D03*
Y017175D02*
D03*
D23*
X03862Y019652D02*
D03*
Y019396D02*
D03*
Y01914D02*
D03*
Y018884D02*
D03*
Y018628D02*
D03*
Y018372D02*
D03*
Y018116D02*
D03*
Y01786D02*
D03*
Y017604D02*
D03*
Y017348D02*
D03*
X04138D02*
D03*
Y017604D02*
D03*
Y01786D02*
D03*
Y018116D02*
D03*
Y018372D02*
D03*
Y018628D02*
D03*
Y018884D02*
D03*
Y01914D02*
D03*
Y019396D02*
D03*
Y019652D02*
D03*
D38*
X0455Y028D02*
D03*
D39*
X0445D02*
D03*
D42*
X02956Y02069D02*
X030393D01*
X024677Y022D02*
X02825D01*
X02956Y02069D01*
X029915Y021335D02*
X0305D01*
X025Y02275D02*
X0285D01*
X029915Y021335D01*
X030393Y02069D02*
X030417Y020665D01*
X0305D01*
X021Y02675D02*
X025Y02275D01*
X021Y025677D02*
X024677Y022D01*
X021Y02675D02*
Y030323D01*
X02676Y020953D02*
X03Y017713D01*
Y015335D02*
Y017713D01*
X0305Y021354D02*
X031146Y022D01*
X031915D01*
X043Y029335D02*
X043751D01*
X0445Y028D02*
Y028585D01*
X043751Y029335D02*
X0445Y028585D01*
X041217Y0245D02*
X045685D01*
X042854Y0285D02*
X043Y028646D01*
X041364Y0285D02*
X042854D01*
X043Y028646D02*
Y028665D01*
X0455Y028D02*
X0465Y029D01*
X049D01*
X049515Y025787D02*
Y028485D01*
X046382Y025197D02*
X048925D01*
X049515Y025787D01*
X049Y029D02*
X049515Y028485D01*
X04075Y028134D02*
Y028984D01*
X048015Y027015D02*
X049Y028D01*
X04187Y027015D02*
X048015D01*
X04075Y028134D02*
X04187Y027015D01*
X041266Y0295D02*
X041364D01*
X04075Y028984D02*
X041266Y0295D01*
X04Y023283D02*
X041217Y0245D01*
X045685D02*
X046382Y025197D01*
X04Y023D02*
Y023283D01*
X038894Y023D02*
X04D01*
Y021D02*
Y023D01*
X041106D01*
X048685Y030315D02*
X049Y03D01*
X03725Y030315D02*
X048685D01*
X035761Y026228D02*
X036033Y0265D01*
X037988D01*
X03575Y026228D02*
X035761D01*
X035112Y025591D02*
X03575Y026228D01*
X032402Y025591D02*
X035112D01*
X039012Y026126D02*
X039091D01*
X03913Y026165D02*
X04025D01*
X039091Y026126D02*
X03913Y026165D01*
X038234Y0295D02*
X04025Y027484D01*
Y026835D02*
Y027484D01*
X038136Y0295D02*
X038234D01*
X03575Y030315D02*
X03725D01*
Y029287D02*
Y030315D01*
Y029287D02*
X038037Y0285D01*
X032402Y030315D02*
X03575D01*
Y029772D02*
Y030315D01*
X038037Y0285D02*
X038136D01*
X043295Y017348D02*
X047144Y0135D01*
X049D01*
X04138Y017348D02*
X043295D01*
X046821Y0145D02*
X049D01*
X043717Y017604D02*
X046821Y0145D01*
X04138Y017604D02*
X043717D01*
X04138Y01786D02*
X044089D01*
X046449Y0155D01*
X049D01*
X045922Y0165D02*
X049D01*
X044306Y018116D02*
X045922Y0165D01*
X04138Y018116D02*
X044306D01*
X042905Y020564D02*
X046335Y023993D01*
Y0245D01*
X041625Y020564D02*
X042905D01*
X03862Y019652D02*
X040713D01*
X041625Y020564D01*
X046315Y0245D02*
X049D01*
X043345Y019652D02*
X047193Y0235D01*
X049D01*
X04138Y019652D02*
X043345D01*
X043717Y019396D02*
X046821Y0225D01*
X049D01*
X04138Y019396D02*
X043717D01*
X044089Y01914D02*
X046449Y0215D01*
X049D01*
X04138Y01914D02*
X044089D01*
X045922Y0205D02*
X049D01*
X044306Y018884D02*
X045922Y0205D01*
X04138Y018884D02*
X044306D01*
X038096Y017491D02*
X038204Y017599D01*
X038615D01*
X038096Y016904D02*
Y017491D01*
X038615Y017599D02*
X03862Y017604D01*
X038096Y016904D02*
X039Y016D01*
X038948Y014054D02*
Y015948D01*
X038894Y014D02*
X038948Y014054D01*
Y015948D02*
X039Y016D01*
X04138Y018372D02*
X044667D01*
X04138Y018628D02*
X044667D01*
X0455Y019461D01*
X044667Y018372D02*
X0455Y017539D01*
X045529Y019461D02*
X045894Y019825D01*
X0455Y019461D02*
X045529D01*
X045894Y019825D02*
X04725D01*
X045529Y017539D02*
X045894Y017175D01*
X04725D01*
X0455Y017539D02*
X045529D01*
X038557Y020256D02*
X039539D01*
X038096Y019509D02*
Y019794D01*
Y019509D02*
X038204Y019401D01*
X038096Y019794D02*
X038557Y020256D01*
X038204Y019401D02*
X038615D01*
X039539Y020256D02*
X04Y020717D01*
X038615Y019401D02*
X03862Y019396D01*
X04Y020717D02*
Y021D01*
X041D01*
X039D02*
X04D01*
X03862Y01914D02*
Y019396D01*
X034898Y015355D02*
X03766Y018116D01*
X034Y015355D02*
X034898D01*
X03766Y018116D02*
X03862D01*
X035416Y016645D02*
X037142Y018372D01*
X03862D01*
X034Y016645D02*
X035416D01*
X03766Y018884D02*
X03862D01*
X034898Y021645D02*
X03766Y018884D01*
X034Y021645D02*
X034898D01*
X037142Y018628D02*
X03862D01*
X035416Y020355D02*
X037142Y018628D01*
X034Y020355D02*
X035416D01*
X031146Y02D02*
X031915D01*
X03048Y020665D02*
X031146Y02D01*
X03251Y016655D02*
X03399D01*
X0325Y016665D02*
X03251Y016655D01*
X03399D02*
X034Y016645D01*
X033466Y020355D02*
X034D01*
X033111Y02D02*
X033466Y020355D01*
X033039Y022D02*
X033394Y021645D01*
X032585Y022D02*
X033039D01*
X033394Y021645D02*
X034D01*
X032585Y02D02*
X033111D01*
X03251Y015345D02*
X03399D01*
X0325Y015335D02*
X03251Y015345D01*
X03399D02*
X034Y015355D01*
X0325Y015335D02*
X0325Y015335D01*
X03125Y015335D02*
X0325D01*
X03Y014665D02*
X03Y014665D01*
X03125D01*
D43*
X049Y03D02*
D03*
Y0135D02*
D03*
Y0245D02*
D03*
D44*
Y029D02*
D03*
Y028D02*
D03*
Y027D02*
D03*
Y026D02*
D03*
Y0145D02*
D03*
Y0155D02*
D03*
Y0165D02*
D03*
Y0175D02*
D03*
Y0235D02*
D03*
Y0225D02*
D03*
Y0215D02*
D03*
Y0205D02*
D03*
D45*
X0455Y017539D02*
D03*
Y019461D02*
D03*
X038Y021D02*
D03*
X039D02*
D03*
X042D02*
D03*
X041D02*
D03*
X038Y016D02*
D03*
X039D02*
D03*
D46*
X0245Y028D02*
D03*
X0175D02*
D03*
D47*
X021Y030323D02*
D03*
Y025677D02*
D03*
X0145Y01625D02*
D03*
Y02525D02*
D03*
X027598Y030315D02*
D03*
Y025591D02*
D03*
X02676Y018D02*
D03*
X01924Y019969D02*
D03*
Y016029D02*
D03*
X02676Y020953D02*
D03*
Y015047D02*
D03*
D48*
X0145Y01825D02*
D03*
Y02725D02*
D03*
D49*
X032402Y025591D02*
D03*
Y030315D02*
D03*
D50*
X033189Y028D02*
D03*
D51*
X038106Y023D02*
D03*
X041894D02*
D03*
X038106Y014D02*
D03*
D52*
X038894Y023D02*
D03*
X041106D02*
D03*
X038894Y014D02*
D03*
D53*
X03575Y026228D02*
D03*
Y029772D02*
D03*
D54*
X0425Y0145D02*
D03*
X0435Y0145D02*
D03*
M02*
