G04*
G04 #@! TF.GenerationSoftware,Altium Limited,Altium Designer,21.4.1 (30)*
G04*
G04 Layer_Color=32768*
%FSTAX24Y24*%
%MOIN*%
G70*
G04*
G04 #@! TF.SameCoordinates,1087EDB9-1C9E-4751-9A69-D70096B2919A*
G04*
G04*
G04 #@! TF.FilePolarity,Positive*
G04*
G01*
G75*
%ADD57C,0.0039*%
%ADD58C,0.0020*%
D57*
X0455Y018303D02*
Y018697D01*
X045303Y0185D02*
X045697D01*
X0145Y017053D02*
Y017447D01*
X014303Y01725D02*
X014697D01*
X0145Y026053D02*
Y026447D01*
X014303Y02625D02*
X014697D01*
X035553Y028D02*
X035947D01*
X03575Y027803D02*
Y028197D01*
X043Y028813D02*
Y029187D01*
X042813Y029D02*
X043187D01*
X04025Y026313D02*
Y026687D01*
X040063Y0265D02*
X040437D01*
X032063Y022D02*
X032437D01*
X03225Y021813D02*
Y022187D01*
X0305Y020813D02*
Y021187D01*
X030313Y021D02*
X030687D01*
X032063Y02D02*
X032437D01*
X03225Y019813D02*
Y020187D01*
X045813Y0245D02*
X046187D01*
X046Y024313D02*
Y024687D01*
X03125Y014813D02*
Y015187D01*
X031063Y015D02*
X031437D01*
X03Y014813D02*
Y015187D01*
X029813Y015D02*
X030187D01*
X0325Y016813D02*
Y017187D01*
X032313Y017D02*
X032687D01*
X0325Y014813D02*
Y015187D01*
X032313Y015D02*
X032687D01*
D58*
X044546Y016226D02*
Y020774D01*
Y016226D02*
X046454D01*
Y020774D01*
X044545D02*
X046454D01*
X012866Y015211D02*
X016134D01*
X016134D02*
Y019514D01*
X012866Y015211D02*
Y019514D01*
X016134D01*
X012866Y024211D02*
X016134D01*
X016134D02*
Y028514D01*
X012866Y024211D02*
Y028514D01*
X016134D01*
X033917Y024783D02*
Y031122D01*
X026161D02*
X033917D01*
X026161Y024783D02*
Y031122D01*
Y024783D02*
X033917D01*
X035346Y025923D02*
Y030077D01*
X036154D01*
X035346Y025923D02*
X036154D01*
Y030077D01*
X042587Y029768D02*
X043413D01*
X042587Y028232D02*
X043413D01*
Y029768D01*
X042587Y028232D02*
Y029768D01*
X039837Y027268D02*
X040663D01*
X039837Y025732D02*
X040663D01*
Y027268D01*
X039837Y025732D02*
Y027268D01*
X031482Y021587D02*
Y022413D01*
X033018Y021587D02*
Y022413D01*
X031482D02*
X033018D01*
X031482Y021587D02*
X033018D01*
X030087Y021768D02*
X030913D01*
X030087Y020232D02*
X030913D01*
Y021768D01*
X030087Y020232D02*
Y021768D01*
X031482Y019587D02*
Y020413D01*
X033018Y019587D02*
Y020413D01*
X031482D02*
X033018D01*
X031482Y019587D02*
X033018D01*
X038148Y020075D02*
X041852D01*
X038148Y016925D02*
X041852D01*
X038148D02*
Y020075D01*
X041852Y016925D02*
Y020075D01*
X046768Y024087D02*
Y024913D01*
X045232Y024087D02*
Y024913D01*
Y024087D02*
X046768D01*
X045232Y024913D02*
X046768D01*
X030837Y015768D02*
X031663D01*
X030837Y014232D02*
X031663D01*
Y015768D01*
X030837Y014232D02*
Y015768D01*
X029587Y014232D02*
X030413D01*
X029587Y015768D02*
X030413D01*
X029587Y014232D02*
Y015768D01*
X030413Y014232D02*
Y015768D01*
X032087Y017768D02*
X032913D01*
X032087Y016232D02*
X032913D01*
Y017768D01*
X032087Y016232D02*
Y017768D01*
Y014232D02*
X032913D01*
X032087Y015768D02*
X032913D01*
X032087Y014232D02*
Y015768D01*
X032913Y014232D02*
Y015768D01*
M02*
