G04*
G04 #@! TF.GenerationSoftware,Altium Limited,Altium Designer,21.4.1 (30)*
G04*
G04 Layer_Color=16711935*
%FSTAX24Y24*%
%MOIN*%
G70*
G04*
G04 #@! TF.SameCoordinates,1087EDB9-1C9E-4751-9A69-D70096B2919A*
G04*
G04*
G04 #@! TF.FilePolarity,Positive*
G04*
G01*
G75*
%ADD11C,0.0079*%
%ADD14C,0.0050*%
%ADD57C,0.0039*%
D11*
X034213Y025591D02*
G03*
X034213Y025591I-000039J0D01*
G01*
X03801Y019841D02*
G03*
X03801Y019841I-000039J0D01*
G01*
D14*
X033819Y024882D02*
Y031024D01*
X02626D02*
X033819D01*
X02626Y024882D02*
Y031024D01*
Y024882D02*
X033819D01*
X038898Y019976D02*
X041102D01*
X038898Y017024D02*
X041102D01*
X038898D02*
Y019976D01*
X041102Y017024D02*
Y019976D01*
D57*
X046415Y019819D02*
G03*
X044585Y019819I-000915J0D01*
G01*
X044772Y01725D02*
G03*
X046228Y01725I000728J0D01*
G01*
Y01975D02*
G03*
X044772Y01975I-000728J0D01*
G01*
X044585Y017181D02*
G03*
X046415Y017181I000915J0D01*
G01*
X044585Y017181D02*
Y019819D01*
X046415Y017181D02*
Y019819D01*
X044772Y01725D02*
Y019839D01*
X046228Y01725D02*
Y019839D01*
X013131Y019371D02*
X01319Y019301D01*
Y01925D02*
Y019301D01*
X013131Y019371D02*
Y019474D01*
X016094Y01525D02*
Y01925D01*
X012905Y01525D02*
Y01925D01*
X016094D01*
X012905Y01525D02*
X016094D01*
X013131Y019474D02*
X013412D01*
X013412Y019474D01*
Y019371D02*
Y019474D01*
X013353Y01925D02*
Y019301D01*
X013412Y019371D01*
X013131Y028371D02*
X01319Y028301D01*
Y02825D02*
Y028301D01*
X013131Y028371D02*
Y028474D01*
X016094Y02425D02*
Y02825D01*
X012905Y02425D02*
Y02825D01*
X016094D01*
X012905Y02425D02*
X016094D01*
X013131Y028474D02*
X013412D01*
X013412Y028474D01*
Y028371D02*
Y028474D01*
X013353Y02825D02*
Y028301D01*
X013412Y028371D01*
X036114Y027163D02*
Y028837D01*
X035386D02*
X036114D01*
X035386Y027163D02*
X036114D01*
X035386D02*
Y028837D01*
X042813Y029344D02*
X043187D01*
X042813Y028656D02*
X043187D01*
Y029344D01*
X042813Y028656D02*
Y029344D01*
X040063Y026844D02*
X040437D01*
X040063Y026156D02*
X040437D01*
Y026844D01*
X040063Y026156D02*
Y026844D01*
X031906Y021813D02*
Y022187D01*
X032594Y021813D02*
Y022187D01*
X031906D02*
X032594D01*
X031906Y021813D02*
X032594D01*
X030313Y021344D02*
X030687D01*
X030313Y020656D02*
X030687D01*
Y021344D01*
X030313Y020656D02*
Y021344D01*
X031906Y019813D02*
Y020187D01*
X032594Y019813D02*
Y020187D01*
X031906D02*
X032594D01*
X031906Y019813D02*
X032594D01*
X046344Y024313D02*
Y024687D01*
X045656Y024313D02*
Y024687D01*
Y024313D02*
X046344D01*
X045656Y024687D02*
X046344D01*
X031063Y015344D02*
X031437D01*
X031063Y014656D02*
X031437D01*
Y015344D01*
X031063Y014656D02*
Y015344D01*
X029813Y014656D02*
X030187D01*
X029813Y015344D02*
X030187D01*
X029813Y014656D02*
Y015344D01*
X030187Y014656D02*
Y015344D01*
X032313Y017344D02*
X032687D01*
X032313Y016656D02*
X032687D01*
Y017344D01*
X032313Y016656D02*
Y017344D01*
Y014656D02*
X032687D01*
X032313Y015344D02*
X032687D01*
X032313Y014656D02*
Y015344D01*
X032687Y014656D02*
Y015344D01*
M02*
