G04*
G04 #@! TF.GenerationSoftware,Altium Limited,Altium Designer,21.4.1 (30)*
G04*
G04 Layer_Color=8388736*
%FSTAX24Y24*%
%MOIN*%
G70*
G04*
G04 #@! TF.SameCoordinates,1087EDB9-1C9E-4751-9A69-D70096B2919A*
G04*
G04*
G04 #@! TF.FilePolarity,Negative*
G04*
G01*
G75*
%ADD17R,0.0613X0.0592*%
%ADD18R,0.0866X0.0669*%
%ADD22R,0.0421X0.0475*%
%ADD24R,0.0493X0.0533*%
%ADD25R,0.0513X0.0356*%
%ADD26R,0.0533X0.0493*%
G04:AMPARAMS|DCode=27|XSize=82.8mil|YSize=26.9mil|CornerRadius=6.4mil|HoleSize=0mil|Usage=FLASHONLY|Rotation=0.000|XOffset=0mil|YOffset=0mil|HoleType=Round|Shape=RoundedRectangle|*
%AMROUNDEDRECTD27*
21,1,0.0828,0.0142,0,0,0.0*
21,1,0.0701,0.0269,0,0,0.0*
1,1,0.0127,0.0350,-0.0071*
1,1,0.0127,-0.0350,-0.0071*
1,1,0.0127,-0.0350,0.0071*
1,1,0.0127,0.0350,0.0071*
%
%ADD27ROUNDEDRECTD27*%
%ADD28R,0.0710X0.0710*%
%ADD29C,0.0710*%
%ADD30C,0.0552*%
%ADD31C,0.0867*%
%ADD32C,0.0789*%
%ADD33R,0.0789X0.0789*%
%ADD34C,0.0595*%
%ADD35C,0.0848*%
%ADD36O,0.0592X0.0671*%
%ADD37R,0.0592X0.0671*%
%ADD38C,0.0571*%
%ADD39R,0.0571X0.0571*%
%ADD40C,0.0611*%
%ADD41C,0.0780*%
D17*
X034Y022355D02*
D03*
Y021645D02*
D03*
Y019645D02*
D03*
Y020355D02*
D03*
Y017355D02*
D03*
Y016645D02*
D03*
Y014645D02*
D03*
Y015355D02*
D03*
D18*
X038136Y0285D02*
D03*
Y0295D02*
D03*
X041364D02*
D03*
Y0285D02*
D03*
D22*
X04725Y019175D02*
D03*
Y019825D02*
D03*
Y017825D02*
D03*
Y017175D02*
D03*
D24*
X043Y029335D02*
D03*
Y028665D02*
D03*
X04025Y026835D02*
D03*
Y026165D02*
D03*
X0305Y021335D02*
D03*
Y020665D02*
D03*
X03125Y015335D02*
D03*
Y014665D02*
D03*
X03Y014665D02*
D03*
Y015335D02*
D03*
X0325Y017335D02*
D03*
Y016665D02*
D03*
Y014665D02*
D03*
Y015335D02*
D03*
D25*
X037988Y0265D02*
D03*
X039012Y026874D02*
D03*
Y026126D02*
D03*
D26*
X031915Y022D02*
D03*
X032585D02*
D03*
X031915Y02D02*
D03*
X032585D02*
D03*
X046335Y0245D02*
D03*
X045665D02*
D03*
D27*
X03862Y019652D02*
D03*
Y019396D02*
D03*
Y01914D02*
D03*
Y018884D02*
D03*
Y018628D02*
D03*
Y018372D02*
D03*
Y018116D02*
D03*
Y01786D02*
D03*
Y017604D02*
D03*
Y017348D02*
D03*
X04138D02*
D03*
Y017604D02*
D03*
Y01786D02*
D03*
Y018116D02*
D03*
Y018372D02*
D03*
Y018628D02*
D03*
Y018884D02*
D03*
Y01914D02*
D03*
Y019396D02*
D03*
Y019652D02*
D03*
D28*
X049Y03D02*
D03*
Y0135D02*
D03*
Y0245D02*
D03*
D29*
Y029D02*
D03*
Y028D02*
D03*
Y027D02*
D03*
Y026D02*
D03*
Y0145D02*
D03*
Y0155D02*
D03*
Y0165D02*
D03*
Y0175D02*
D03*
Y0235D02*
D03*
Y0225D02*
D03*
Y0215D02*
D03*
Y0205D02*
D03*
D30*
X0455Y017539D02*
D03*
Y019461D02*
D03*
X038Y021D02*
D03*
X039D02*
D03*
X042D02*
D03*
X041D02*
D03*
X038Y016D02*
D03*
X039D02*
D03*
D31*
X0245Y028D02*
D03*
X0175D02*
D03*
D32*
X021Y030323D02*
D03*
Y025677D02*
D03*
X0145Y01625D02*
D03*
Y02525D02*
D03*
X027598Y030315D02*
D03*
Y025591D02*
D03*
X02676Y018D02*
D03*
X01924Y019969D02*
D03*
Y016029D02*
D03*
X02676Y020953D02*
D03*
Y015047D02*
D03*
D33*
X0145Y01825D02*
D03*
Y02725D02*
D03*
D34*
X032402Y025591D02*
D03*
Y030315D02*
D03*
D35*
X033189Y028D02*
D03*
D36*
X038106Y023D02*
D03*
X041894D02*
D03*
X038106Y014D02*
D03*
D37*
X038894Y023D02*
D03*
X041106D02*
D03*
X038894Y014D02*
D03*
D38*
X0455Y028D02*
D03*
D39*
X0445D02*
D03*
D40*
X03575Y026228D02*
D03*
Y029772D02*
D03*
D41*
X0425Y0145D02*
D03*
X0435Y0145D02*
D03*
M02*
