G04*
G04 #@! TF.GenerationSoftware,Altium Limited,Altium Designer,21.4.1 (30)*
G04*
G04 Layer_Color=255*
%FSTAX24Y24*%
%MOIN*%
G70*
G04*
G04 #@! TF.SameCoordinates,1087EDB9-1C9E-4751-9A69-D70096B2919A*
G04*
G04*
G04 #@! TF.FilePolarity,Positive*
G04*
G01*
G75*
%ADD38C,0.0571*%
%ADD39R,0.0571X0.0571*%
%ADD43R,0.0630X0.0630*%
%ADD44C,0.0630*%
%ADD45C,0.0472*%
%ADD46C,0.0787*%
%ADD47C,0.0709*%
%ADD48R,0.0709X0.0709*%
%ADD49C,0.0515*%
%ADD50C,0.0768*%
%ADD51O,0.0512X0.0591*%
%ADD52R,0.0512X0.0591*%
%ADD53C,0.0531*%
%ADD54C,0.0700*%
D38*
X0455Y028D02*
D03*
D39*
X0445D02*
D03*
D43*
X049Y03D02*
D03*
Y0135D02*
D03*
Y0245D02*
D03*
D44*
Y029D02*
D03*
Y028D02*
D03*
Y027D02*
D03*
Y026D02*
D03*
Y0145D02*
D03*
Y0155D02*
D03*
Y0165D02*
D03*
Y0175D02*
D03*
Y0235D02*
D03*
Y0225D02*
D03*
Y0215D02*
D03*
Y0205D02*
D03*
D45*
X0455Y017539D02*
D03*
Y019461D02*
D03*
X038Y021D02*
D03*
X039D02*
D03*
X042D02*
D03*
X041D02*
D03*
X038Y016D02*
D03*
X039D02*
D03*
D46*
X0245Y028D02*
D03*
X0175D02*
D03*
D47*
X021Y030323D02*
D03*
Y025677D02*
D03*
X0145Y01625D02*
D03*
Y02525D02*
D03*
X027598Y030315D02*
D03*
Y025591D02*
D03*
X02676Y018D02*
D03*
X01924Y019969D02*
D03*
Y016029D02*
D03*
X02676Y020953D02*
D03*
Y015047D02*
D03*
D48*
X0145Y01825D02*
D03*
Y02725D02*
D03*
D49*
X032402Y025591D02*
D03*
Y030315D02*
D03*
D50*
X033189Y028D02*
D03*
D51*
X038106Y023D02*
D03*
X041894D02*
D03*
X038106Y014D02*
D03*
D52*
X038894Y023D02*
D03*
X041106D02*
D03*
X038894Y014D02*
D03*
D53*
X03575Y026228D02*
D03*
Y029772D02*
D03*
D54*
X0425Y0145D02*
D03*
X0435Y0145D02*
D03*
M02*
