M48
;Layer_Color=9474304
;FILE_FORMAT=2:4
INCH,LZ
;TYPE=PLATED
T1F00S00C0.0236
T2F00S00C0.0276
T3F00S00C0.0315
T4F00S00C0.0335
T5F00S00C0.0374
T6F00S00C0.0394
T7F00S00C0.0400
T8F00S00C0.0433
T9F00S00C0.0472
T10F00S00C0.0512
%
T01
X038Y016
X039
Y021
X038
X041
X042
T02
X0455Y017539
Y019461
T03
X038106Y014
X038894
Y023
X038106
X041106
X041894
X032402Y025591
Y030315
T04
X03575Y026228
Y029772
T05
X0445Y028
X0455
T06
X02676Y015047
Y018
Y020953
X01924Y019969
Y016029
X021Y025677
Y030323
T07
X0425Y0145
X0435Y0145
T08
X049Y0135
Y0145
Y0155
Y0165
Y0175
Y0205
Y0215
Y0225
Y0235
Y0245
Y026
Y027
Y028
Y029
Y03
T09
X0175Y028
X0245
X027598Y030315
Y025591
T10
X033189Y028
X0145Y02725
Y02525
Y01825
Y01625
M30
