G04*
G04 #@! TF.GenerationSoftware,Altium Limited,Altium Designer,21.4.1 (30)*
G04*
G04 Layer_Color=16711935*
%FSTAX24Y24*%
%MOIN*%
G70*
G04*
G04 #@! TF.SameCoordinates,1087EDB9-1C9E-4751-9A69-D70096B2919A*
G04*
G04*
G04 #@! TF.FilePolarity,Negative*
G04*
G01*
G75*
%ADD28R,0.0710X0.0710*%
%ADD29C,0.0710*%
%ADD30C,0.0552*%
%ADD31C,0.0867*%
%ADD32C,0.0789*%
%ADD33R,0.0789X0.0789*%
%ADD34C,0.0595*%
%ADD35C,0.0848*%
%ADD36O,0.0592X0.0671*%
%ADD37R,0.0592X0.0671*%
%ADD38C,0.0571*%
%ADD39R,0.0571X0.0571*%
%ADD40C,0.0611*%
%ADD41C,0.0780*%
D28*
X049Y03D02*
D03*
Y0135D02*
D03*
Y0245D02*
D03*
D29*
Y029D02*
D03*
Y028D02*
D03*
Y027D02*
D03*
Y026D02*
D03*
Y0145D02*
D03*
Y0155D02*
D03*
Y0165D02*
D03*
Y0175D02*
D03*
Y0235D02*
D03*
Y0225D02*
D03*
Y0215D02*
D03*
Y0205D02*
D03*
D30*
X0455Y017539D02*
D03*
Y019461D02*
D03*
X038Y021D02*
D03*
X039D02*
D03*
X042D02*
D03*
X041D02*
D03*
X038Y016D02*
D03*
X039D02*
D03*
D31*
X0245Y028D02*
D03*
X0175D02*
D03*
D32*
X021Y030323D02*
D03*
Y025677D02*
D03*
X0145Y01625D02*
D03*
Y02525D02*
D03*
X027598Y030315D02*
D03*
Y025591D02*
D03*
X02676Y018D02*
D03*
X01924Y019969D02*
D03*
Y016029D02*
D03*
X02676Y020953D02*
D03*
Y015047D02*
D03*
D33*
X0145Y01825D02*
D03*
Y02725D02*
D03*
D34*
X032402Y025591D02*
D03*
Y030315D02*
D03*
D35*
X033189Y028D02*
D03*
D36*
X038106Y023D02*
D03*
X041894D02*
D03*
X038106Y014D02*
D03*
D37*
X038894Y023D02*
D03*
X041106D02*
D03*
X038894Y014D02*
D03*
D38*
X0455Y028D02*
D03*
D39*
X0445D02*
D03*
D40*
X03575Y026228D02*
D03*
Y029772D02*
D03*
D41*
X0425Y0145D02*
D03*
X0435Y0145D02*
D03*
M02*
